{"title":"Abduction.2011.BRRip.720p.x264.Feel-Free","uid":6897839,"size":2297157213,"categoryP":"video","categoryS":"hd___movies","magnet":"?xt=urn:btih:e39d797ad731113bffc254706205c2fc685cb160&amp;dn=Abduction.2011.BRRip.720p.x264.Feel-Free&amp;tr=udp%3A%2F%2Ftracker.openbittorrent.com%3A80&amp;tr=udp%3A%2F%2Fopen.demonii.com%3A1337&amp;tr=udp%3A%2F%2Ftracker.coppersurfer.tk%3A6969&amp;tr=udp%3A%2F%2Fexodus.desync.com%3A6969","seeders":0,"leechers":1,"uploader":".BONE.","files":8,"time":1324274706,"description":"Genre:Action | Drama | Mystery\nLanguage:English\nIMDb:http://www.imdb.com/title/tt1600195/\nSource:1080p.DTS.x264-CHD Thanks!\n\nFormat : MPEG-4\nFormat profile : Base Media\nCodec ID : isom\nFile size : 2.14 GiB\nDuration : 1h 45mn\nOverall bit rate : 2 885 Kbps\n\nVideo\nID : 1\nFormat : AVC\nFormat/Info : Advanced Video Codec\nFormat profile : &lt;a class=&quot;__cf_email__&quot; href=&quot;/cdn-cgi/l/email-protection&quot; data-cfemail=&quot;1d55747a755d5128332c&quot;&gt;[email&amp;#160;protected]&lt;/a&gt;&lt;script cf-hash='f9e31' type=&quot;text/javascript&quot;&gt;\n/* &lt;![CDATA[ */!function(){try{var t=&quot;currentScript&quot;in document?document.currentScript:function(){for(var t=document.getElementsByTagName(&quot;script&quot;),e=t.length;e--;)if(t[e].getAttribute(&quot;cf-hash&quot;))return t[e]}();if(t&amp;&amp;t.previousSibling){var e,r,n,i,c=t.previousSibling,a=c.getAttribute(&quot;data-cfemail&quot;);if(a){for(e=&quot;&quot;,r=parseInt(a.substr(0,2),16),n=2;a.length-n;n+=2)i=parseInt(a.substr(n,2),16)^r,e+=String.fromCharCode(i);e=document.createTextNode(e),c.parentNode.replaceChild(e,c)}}}catch(u){}}();/* ]]&gt; */&lt;/script&gt;\nFormat settings, CABAC : Yes\nFormat settings, ReFrames : 3 frames\nCodec ID : avc1\nCodec ID/Info : Advanced Video Coding\nDuration : 1h 45mn\nBit rate mode : Variable\nBit rate : 2 500 Kbps\nMaximum bit rate : 15.6 Mbps\nWidth : 1 280 pixels\nHeight : 528 pixels\nDisplay aspect ratio : 2.40:1\nFrame rate mode : Constant\nFrame rate : 23.976 fps\nColor space : YUV\nChroma subsampling : 4:2:0\nBit depth : 8 bits\nScan type : Progressive\nBits/(Pixel*Frame) : 0.154\nStream size : 1.81 GiB (85%)\nWriting library : x264\n\n\nAudio\nID : 2\nFormat : AAC\nFormat/Info : Advanced Audio Codec\nFormat version : Version 4\nFormat profile : LC\nFormat settings, SBR : No\nCodec ID : 40\nDuration : 1h 45mn\nBit rate mode : Variable\nBit rate : 437 Kbps\nMaximum bit rate : 551 Kbps\nChannel(s) : 6 channels\nChannel positions : Front: L C R, Side: L R, LFE\nSampling rate : 48.0 KHz\nStream size : 332 MiB (15%)\n\n\nPlot:\nA thriller centered on a young man who sets out to uncover the truth about his life after finding his baby photo on a missing persons website\n","torrent":{"xt":"urn:btih:e39d797ad731113bffc254706205c2fc685cb160","amp;dn":"Abduction.2011.BRRip.720p.x264.Feel-Free","amp;tr":["udp%3A%2F%2Ftracker.openbittorrent.com%3A80","udp%3A%2F%2Fopen.demonii.com%3A1337","udp%3A%2F%2Ftracker.coppersurfer.tk%3A6969","udp%3A%2F%2Fexodus.desync.com%3A6969"],"infoHash":"e39d797ad731113bffc254706205c2fc685cb160","infoHashBuffer":{"type":"Buffer","data":[227,157,121,122,215,49,17,59,255,194,84,112,98,5,194,252,104,92,177,96]},"announce":[],"urlList":[]}}